<svg width="26" height="27" viewBox="0 0 26 27" fill="none" xmlns="http://www.w3.org/2000/svg">
<path d="M2.32917 5.53253C2.16522 5.53273 2.00127 5.53382 1.83733 5.53578C1.67483 5.5412 1.50908 5.54987 1.34767 5.57912C1.10372 5.61767 0.872414 5.71359 0.672776 5.85898C0.473138 6.00438 0.310874 6.1951 0.199333 6.41545C0.1235 6.56495 0.0758333 6.71662 0.0476667 6.88128C0.0173333 7.04162 0.00758333 7.20628 0.00433333 7.36878C0.00211554 7.44424 0.000671024 7.51971 0 7.5952L0 20.1153C0 20.1911 0.00216667 20.2648 0.00325 20.3395C0.00758333 20.502 0.0173333 20.6678 0.0465833 20.8292C0.0758333 20.9917 0.124583 21.1444 0.200417 21.2939C0.349803 21.5881 0.58881 21.8271 0.882917 21.9764C1.03242 22.0523 1.18408 22.101 1.34875 22.1303C1.50908 22.1595 1.67375 22.1693 1.83625 22.1736L2.06158 22.1769H23.9384L24.1627 22.1736C24.3252 22.1693 24.4909 22.1595 24.6523 22.1303C24.8148 22.101 24.9676 22.0534 25.116 21.9775C25.4109 21.8283 25.6503 21.5888 25.7996 21.2939C25.8754 21.1444 25.9242 20.9928 25.9523 20.8281C25.9816 20.6678 25.9913 20.5031 25.9957 20.3406C25.9978 20.2648 25.9989 20.1911 25.9989 20.1153L26 19.8488V7.59412C26 7.51828 25.9978 7.44462 25.9957 7.36987C25.9936 7.20578 25.9791 7.04209 25.9523 6.8802C25.9005 6.55396 25.7469 6.25246 25.5134 6.01878C25.2799 5.78511 24.9785 5.63122 24.6523 5.57912C24.4904 5.55242 24.3267 5.53794 24.1627 5.53578C23.9991 5.53115 23.8355 5.53007 23.6719 5.53253H2.32917ZM2.32917 6.0872H23.933C24.0045 6.0872 24.0749 6.08937 24.1464 6.09045C24.271 6.09478 24.4172 6.10128 24.5527 6.12512C24.6707 6.14678 24.7693 6.17928 24.8636 6.22695C25.0536 6.32342 25.208 6.47783 25.3045 6.66787C25.3541 6.76607 25.3885 6.87129 25.4063 6.97987C25.4302 7.11312 25.4367 7.25937 25.4399 7.38503C25.4421 7.45545 25.4432 7.52587 25.4432 7.59845V20.1131C25.4432 20.1835 25.4432 20.2539 25.4399 20.3254C25.4367 20.45 25.4302 20.5963 25.4053 20.7317C25.3818 20.8911 25.3204 21.0425 25.2261 21.1732C25.1318 21.3039 25.0075 21.4099 24.8636 21.4824C24.766 21.5318 24.6616 21.5661 24.5538 21.5843C24.4201 21.6055 24.285 21.6171 24.1497 21.6189L23.933 21.6222H2.06483C1.99333 21.6222 1.92075 21.62 1.8525 21.6189C1.71643 21.6172 1.58066 21.6056 1.44625 21.5843C1.32817 21.5626 1.22958 21.5301 1.13425 21.4824C0.944214 21.3864 0.790041 21.2318 0.694417 21.0415C0.644917 20.9433 0.610584 20.8381 0.592583 20.7295C0.571068 20.5959 0.559481 20.4608 0.557917 20.3254C0.556464 20.2543 0.555741 20.1832 0.55575 20.112V7.59737C0.55575 7.52695 0.55575 7.45545 0.557917 7.38395C0.56225 7.26045 0.56875 7.11528 0.592583 6.9777C0.61425 6.8607 0.64675 6.76212 0.694417 6.66678C0.790943 6.47706 0.945377 6.32301 1.13533 6.22695C1.23341 6.17791 1.33817 6.1436 1.44625 6.12512C1.58167 6.10128 1.72792 6.0937 1.8525 6.09045C1.92292 6.08828 1.99442 6.08828 2.06483 6.0872H2.32917ZM7.43167 10.0955C7.10667 10.1129 6.708 10.3111 6.47833 10.5895C6.27142 10.8279 6.08833 11.2179 6.136 11.584C6.50217 11.6165 6.86725 11.4009 7.098 11.1312C7.32008 10.8517 7.47175 10.4779 7.43167 10.0966V10.0955ZM9.82258 10.5505V16.5013H10.7456V14.4679H12.0239C13.1918 14.4679 14.0118 13.6673 14.0118 12.5049C14.0118 11.3457 13.208 10.5494 12.0532 10.5494L9.82258 10.5505ZM10.7456 11.3294H11.8094C12.61 11.3294 13.0672 11.7585 13.0672 12.5092C13.0672 13.2589 12.61 13.6922 11.8062 13.6922H10.7456V11.3294ZM7.32875 11.6544C6.84125 11.6653 6.42958 11.9578 6.19125 11.9578C5.93667 11.9578 5.54883 11.6718 5.1285 11.6794C4.85508 11.6862 4.5882 11.7645 4.35443 11.9065C4.12066 12.0484 3.92813 12.2491 3.796 12.4886C3.22508 13.4723 3.64542 14.9315 4.20117 15.7332C4.47092 16.1297 4.79592 16.5663 5.22383 16.55C5.62792 16.5349 5.78717 16.2879 6.27792 16.2879C6.76975 16.2879 6.91275 16.55 7.33958 16.5424C7.78375 16.5349 8.06217 16.1459 8.33083 15.7484C8.64067 15.2966 8.76742 14.86 8.775 14.8373C8.76742 14.8286 7.91917 14.5036 7.91158 13.5275C7.90292 12.7107 8.57783 12.3218 8.60925 12.2979C8.22792 11.7346 7.63425 11.6718 7.42842 11.6555C7.39524 11.6534 7.36199 11.6538 7.32875 11.6544ZM16.2164 12.0845C15.1439 12.0845 14.4766 12.6619 14.4268 13.4452H15.2685C15.3465 13.0574 15.6683 12.8104 16.1839 12.8104C16.7278 12.8104 17.0538 13.0985 17.0538 13.5806V13.9154L15.8654 13.9847C14.8352 14.0432 14.2534 14.509 14.2534 15.2674C14.2534 16.0474 14.8471 16.5749 15.6964 16.5749C16.2663 16.5749 16.8144 16.2705 17.0658 15.7874H17.0863V16.5013H17.94V13.5113C17.94 12.6414 17.2683 12.0845 16.2164 12.0845ZM18.3181 12.1625L19.8846 16.5056C19.8846 16.5089 19.8055 16.7656 19.8055 16.7732C19.6701 17.2174 19.448 17.3918 19.0352 17.3918C18.9605 17.3918 18.8121 17.3918 18.746 17.3755V18.097C18.811 18.1089 19.0352 18.1176 19.1089 18.1176C20.0081 18.1176 20.4371 17.7796 20.8076 16.7277L22.4326 12.1625H21.4923L20.3959 15.6931H20.3797L19.2823 12.1614L18.3181 12.1625ZM17.0538 14.5339V14.8763C17.0538 15.4407 16.5663 15.8697 15.9445 15.8697C15.4657 15.8697 15.1526 15.6227 15.1526 15.2424C15.1526 14.8719 15.4537 14.6358 15.9857 14.6L17.0538 14.5339Z" fill="black"/>
</svg>
