<svg width="26" height="26" viewBox="0 0 26 26" fill="none" xmlns="http://www.w3.org/2000/svg">
<path d="M5.77776 1.93764C2.52138 1.93764 0.588665 4.27097 0.500136 7.22472H22.8328C22.7423 4.20309 21.3491 2.14754 17.5922 1.9219M5.77776 1.93764V3.55788C5.77776 4.0337 6.2055 4.41943 6.73314 4.41943C7.26079 4.41943 7.68853 4.0337 7.68853 3.55788V1.95831V1.899M5.77776 1.93764V1.39795C5.77776 0.92213 6.2055 0.536403 6.73314 0.536403C7.26079 0.536403 7.68853 0.922131 7.68853 1.39795V1.899M7.68853 1.899L15.6983 1.90123M15.6983 1.90123L15.6815 3.52148C15.6815 3.9973 16.1092 4.38303 16.6368 4.38303C17.1645 4.38303 17.5922 3.9973 17.5922 3.52148V1.9219M15.6983 1.90123L15.6815 1.36155C15.6815 0.885728 16.1092 0.5 16.6368 0.5C17.1645 0.5 17.5922 0.885728 17.5922 1.36155V1.8626V1.9219M22.8367 15.4319C21.7615 14.6093 20.3692 14.1086 18.8407 14.1086C15.4177 14.1086 12.6453 16.6088 12.6453 19.6955C12.6453 20.7431 12.9705 21.7347 13.5436 22.5728H6.72866C2.39186 22.5728 0.533237 20.338 0.533237 16.9859V8.92354H22.8367V15.4319ZM12.8826 13.3041C12.8826 13.9072 12.3404 14.3962 11.6715 14.3962C11.0027 14.3962 10.4605 13.9072 10.4605 13.3041C10.4605 12.7009 11.0027 12.212 11.6715 12.212C12.3404 12.212 12.8826 12.7009 12.8826 13.3041ZM8.30751 13.3041C8.30751 13.9072 7.7653 14.3962 7.09646 14.3962C6.42761 14.3962 5.88541 13.9072 5.88541 13.3041C5.88541 12.7009 6.42761 12.212 7.09646 12.212C7.7653 12.212 8.30751 12.7009 8.30751 13.3041ZM8.30751 16.6532C8.30751 17.2563 7.7653 17.7453 7.09646 17.7453C6.42761 17.7453 5.88541 17.2563 5.88541 16.6532C5.88541 16.05 6.42761 15.5611 7.09646 15.5611C7.7653 15.5611 8.30751 16.05 8.30751 16.6532Z" stroke="#DE504F" stroke-miterlimit="10" stroke-linecap="round" stroke-linejoin="round"/>
<path d="M16.484 19.4446L18.0196 20.801L21.3236 18.1018M22.5335 15.3667C21.4836 14.5799 20.1241 14.1011 18.6316 14.1011C15.2892 14.1011 12.582 16.4923 12.582 19.4446C12.582 20.4465 12.8996 21.395 13.4592 22.1965C13.7768 22.6774 14.1852 23.1049 14.654 23.4522C15.7127 24.2938 17.1041 24.7881 18.6316 24.7881C20.8396 24.7881 22.7604 23.7461 23.8039 22.1965C24.3635 21.395 24.6811 20.4465 24.6811 19.4446C24.6811 18.0953 24.1064 16.8663 23.1687 15.9178C22.9726 15.7209 22.7603 15.5366 22.5335 15.3667Z" stroke="#DE504F" stroke-miterlimit="10" stroke-linecap="round" stroke-linejoin="round"/>
</svg>
