<svg width="25" height="25" viewBox="0 0 25 25" fill="none" xmlns="http://www.w3.org/2000/svg">
<path fill-rule="evenodd" clip-rule="evenodd" d="M22.8367 15.4319V8.92354H0.533237V16.9859C0.533237 20.338 2.39186 22.5728 6.72866 22.5728H13.5436C12.9705 21.7347 12.6453 20.7431 12.6453 19.6955C12.6453 16.6088 15.4177 14.1086 18.8407 14.1086C20.3692 14.1086 21.7615 14.6093 22.8367 15.4319ZM12.8826 13.3041C12.8826 13.9072 12.3404 14.3962 11.6715 14.3962C11.0027 14.3962 10.4605 13.9072 10.4605 13.3041C10.4605 12.7009 11.0027 12.212 11.6715 12.212C12.3404 12.212 12.8826 12.7009 12.8826 13.3041ZM7.09646 14.3962C7.7653 14.3962 8.30751 13.9072 8.30751 13.3041C8.30751 12.7009 7.7653 12.212 7.09646 12.212C6.42761 12.212 5.88541 12.7009 5.88541 13.3041C5.88541 13.9072 6.42761 14.3962 7.09646 14.3962ZM8.30751 16.6532C8.30751 17.2563 7.7653 17.7453 7.09646 17.7453C6.42761 17.7453 5.88541 17.2563 5.88541 16.6532C5.88541 16.05 6.42761 15.5611 7.09646 15.5611C7.7653 15.5611 8.30751 16.05 8.30751 16.6532Z" fill="#DE504F"/>
<path d="M0.500136 7.22472H22.8328C22.7423 4.20309 21.3491 2.14754 17.5922 1.9219V3.52148C17.5922 3.9973 17.1645 4.38302 16.6368 4.38302C16.1092 4.38302 15.6815 3.9973 15.6815 3.52148L15.6983 1.90123L7.68853 1.899V1.95831V3.55788C7.68853 4.0337 7.26079 4.41943 6.73314 4.41943C6.2055 4.41943 5.77776 4.0337 5.77776 3.55788V1.93764C2.52138 1.93764 0.588665 4.27097 0.500136 7.22472Z" fill="#DE504F"/>
<path d="M16.3028 19.1565L17.8385 20.5129L21.1425 17.8138M22.3524 15.0786C21.3024 14.2918 19.9429 13.813 18.4504 13.813C15.108 13.813 12.4009 16.2042 12.4009 19.1565C12.4009 20.1584 12.7185 21.1069 13.2781 21.9084C13.5957 22.3893 14.004 22.8168 14.4728 23.1641C15.5315 24.0057 16.9229 24.5 18.4504 24.5C20.6585 24.5 22.5792 23.458 23.6228 21.9084C24.1823 21.1069 24.4999 20.1584 24.4999 19.1565C24.4999 17.8073 23.9252 16.5782 22.9876 15.6298C22.7915 15.4328 22.5791 15.2485 22.3524 15.0786Z" stroke="#DE504F" stroke-width="0.964617" stroke-miterlimit="10" stroke-linecap="round" stroke-linejoin="round"/>
</svg>
