<svg width="20" height="20" viewBox="0 0 20 20" fill="none" xmlns="http://www.w3.org/2000/svg">
<path d="M7.51602 2.36667L3.02435 5.86667C2.27435 6.45 1.66602 7.69167 1.66602 8.63334V14.8083C1.66602 16.7417 3.24102 18.325 5.17435 18.325H14.8244C16.7577 18.325 18.3327 16.7417 18.3327 14.8167V8.75C18.3327 7.74167 17.6577 6.45 16.8327 5.875L11.6827 2.26667C10.516 1.45 8.64102 1.49167 7.51602 2.36667Z" stroke="#DE504F" stroke-width="1.5" stroke-linecap="round" stroke-linejoin="round"/>
<path d="M8.75 15H11.25C12.625 15 13.75 13.875 13.75 12.5V10C13.75 8.625 12.625 7.5 11.25 7.5H8.75C7.375 7.5 6.25 8.625 6.25 10V12.5C6.25 13.875 7.375 15 8.75 15Z" stroke="#DE504F" stroke-width="1.5" stroke-linecap="round" stroke-linejoin="round"/>
<path d="M10 7.5V15" stroke="#DE504F" stroke-width="1.5" stroke-linecap="round" stroke-linejoin="round"/>
<path d="M6.25 11.25H13.75" stroke="#DE504F" stroke-width="1.5" stroke-linecap="round" stroke-linejoin="round"/>
</svg>
