<svg width="76" height="75" viewBox="0 0 76 75" fill="none" xmlns="http://www.w3.org/2000/svg">
<rect x="0.5" width="75" height="75" rx="37.5" fill="#DE504F"/>
<path d="M30.1403 52.5H45.8603C50.0003 52.5 51.6503 49.965 51.8453 46.875L52.6253 34.485C52.8353 31.245 50.2553 28.5 47.0003 28.5C46.0853 28.5 45.2453 27.975 44.8253 27.165L43.7453 24.99C43.0553 23.625 41.2553 22.5 39.7253 22.5H36.2903C34.7453 22.5 32.9453 23.625 32.2553 24.99L31.1753 27.165C30.7553 27.975 29.9153 28.5 29.0003 28.5C25.7453 28.5 23.1653 31.245 23.3753 34.485L24.1553 46.875C24.3353 49.965 26.0003 52.5 30.1403 52.5Z" stroke="#FFEFD0" stroke-width="2.25" stroke-linecap="round" stroke-linejoin="round"/>
<path d="M35.75 31.5H40.25" stroke="#FFEFD0" stroke-width="2.25" stroke-linecap="round" stroke-linejoin="round"/>
<path d="M38 46.5C40.685 46.5 42.875 44.31 42.875 41.625C42.875 38.94 40.685 36.75 38 36.75C35.315 36.75 33.125 38.94 33.125 41.625C33.125 44.31 35.315 46.5 38 46.5Z" stroke="#FFEFD0" stroke-width="2.25" stroke-linecap="round" stroke-linejoin="round"/>
</svg>
