<svg width="61" height="60" viewBox="0 0 61 60" fill="none" xmlns="http://www.w3.org/2000/svg">
<path d="M10.55 19.3752H11.5648L11.7733 18.382L12.7233 13.857L12.7233 13.857L12.7244 13.8521C13.1618 11.7259 13.7966 9.92057 15.0518 8.63166C16.2656 7.38521 18.2341 6.4502 21.725 6.4502H39.275C42.7659 6.4502 44.7344 7.38521 45.9482 8.63166C47.2034 9.92057 47.8382 11.7259 48.2756 13.8521L48.2767 13.857L49.2267 18.382L49.4352 19.3752H50.45H53C53.3346 19.3752 53.625 19.6656 53.625 20.0002C53.625 20.3348 53.3346 20.6252 53 20.6252H8C7.66536 20.6252 7.375 20.3348 7.375 20.0002C7.375 19.6656 7.66536 19.3752 8 19.3752H10.55Z" fill="#DE504F" stroke="#DE504F" stroke-width="2.5"/>
<path d="M54.7091 34.2645L54.709 34.2632C54.5232 32.2189 54.1709 30.4316 53.1061 29.1333C52.0983 27.9044 50.2391 26.875 46.4539 26.875H14.5539C10.769 26.875 8.91668 27.9042 7.91195 29.1322C6.84901 30.4313 6.49725 32.2182 6.29834 34.2676C6.29824 34.2686 6.29814 34.2696 6.29804 34.2706L4.89863 49.4895L4.89861 49.4896C4.7555 51.0434 5.26676 52.5949 6.32717 53.7574L54.7091 34.2645ZM54.7091 34.2645L56.1091 49.4895L56.1091 49.4896C56.2523 51.0435 55.7409 52.595 54.6804 53.7575C53.5966 54.9432 52.0339 55.625 50.4039 55.625H45.7039C43.9381 55.625 43.0792 55.1291 42.5994 54.6434C42.0696 54.1071 41.8232 53.4181 41.5667 52.6356L41.5647 52.6297L41.0647 51.1297L41.0648 51.1297L41.0616 51.1204L41.0395 51.0557C40.8932 50.6278 40.7503 50.2098 40.592 49.8654C40.4184 49.4878 40.175 49.0783 39.7644 48.7552C39.3482 48.4277 38.8797 48.282 38.4231 48.2093C37.9836 48.1393 37.4708 48.125 36.9039 48.125H24.1039C23.0096 48.125 21.9695 48.1989 21.1933 48.8384C20.7984 49.1638 20.5574 49.563 20.3845 49.9384C20.2236 50.2878 20.0866 50.6988 19.9531 51.0996L19.943 51.1297L19.443 52.6297L19.443 52.6297M54.7091 34.2645L19.443 52.6297M19.443 52.6297L19.4411 52.6356M19.443 52.6297L19.4411 52.6356M19.4411 52.6356C19.1845 53.4181 18.9382 54.1071 18.4084 54.6434C17.9286 55.1291 17.0696 55.625 15.3039 55.625H10.6039C8.9512 55.625 7.41273 54.9449 6.32733 53.7575L19.4411 52.6356ZM15.5039 40.625H23.0039C24.7192 40.625 26.1289 39.2154 26.1289 37.5C26.1289 35.7846 24.7192 34.375 23.0039 34.375H15.5039C13.7885 34.375 12.3789 35.7846 12.3789 37.5C12.3789 39.2154 13.7885 40.625 15.5039 40.625ZM38.0039 40.625H45.5039C47.2192 40.625 48.6289 39.2154 48.6289 37.5C48.6289 35.7846 47.2192 34.375 45.5039 34.375H38.0039C36.2885 34.375 34.8789 35.7846 34.8789 37.5C34.8789 39.2154 36.2885 40.625 38.0039 40.625Z" fill="#DE504F" stroke="#DE504F" stroke-width="2.5"/>
</svg>
