<svg width="26" height="18" viewBox="0 0 26 18" fill="none" xmlns="http://www.w3.org/2000/svg">
<path d="M23.2154 0.623535H2.78683C1.76116 0.623535 0.929688 1.45501 0.929688 2.48068V15.4807C0.929688 16.5063 1.76116 17.3378 2.78683 17.3378H23.2154C24.2411 17.3378 25.0725 16.5063 25.0725 15.4807V2.48068C25.0725 1.45501 24.2411 0.623535 23.2154 0.623535Z" stroke="black" stroke-linecap="round" stroke-linejoin="round"/>
<path d="M13.0006 11.7663C14.5391 11.7663 15.7863 10.519 15.7863 8.98054C15.7863 7.44203 14.5391 6.19482 13.0006 6.19482C11.4621 6.19482 10.2148 7.44203 10.2148 8.98054C10.2148 10.519 11.4621 11.7663 13.0006 11.7663Z" stroke="black" stroke-linecap="round" stroke-linejoin="round"/>
<path d="M5.57031 5.2666H6.49888M19.4989 12.6952H20.4275" stroke="black" stroke-linecap="round" stroke-linejoin="round"/>
</svg>
