<svg width="14" height="15" viewBox="0 0 14 15" fill="none" xmlns="http://www.w3.org/2000/svg">
<path d="M5.93412 11.2732L5.93415 11.2732L5.93005 11.2679C5.81767 11.1225 5.66869 11.0184 5.53437 10.9512C5.40103 10.8846 5.22618 10.8263 5.03893 10.8263H4.19893C2.96041 10.8263 1.95893 9.82603 1.95893 8.5975V8.0375V4.6887C1.95893 3.46017 2.96041 2.4599 4.19893 2.4599H9.79893C11.0374 2.4599 12.0389 3.46017 12.0389 4.6887V8.5975C12.0389 9.82603 11.0374 10.8263 9.79893 10.8263H8.95893C8.60767 10.8263 8.27576 10.9942 8.06507 11.2715L8.06374 11.2732L7.22374 12.3876L7.22293 12.3887C7.12835 12.5148 7.04189 12.5343 6.99893 12.5343C6.95597 12.5343 6.8695 12.5148 6.77493 12.3887L6.77412 12.3876L5.93412 11.2732ZM4.19893 9.0399H7.55893C8.09781 9.0399 8.53893 8.59878 8.53893 8.0599C8.53893 7.52102 8.09781 7.0799 7.55893 7.0799H4.19893C3.66005 7.0799 3.21893 7.52102 3.21893 8.0599C3.21893 8.59878 3.66005 9.0399 4.19893 9.0399ZM4.19893 6.2399H9.79893C10.3378 6.2399 10.7789 5.79878 10.7789 5.2599C10.7789 4.72102 10.3378 4.2799 9.79893 4.2799H4.19893C3.66005 4.2799 3.21893 4.72102 3.21893 5.2599C3.21893 5.79878 3.66005 6.2399 4.19893 6.2399Z" fill="#DE504F" stroke="#DE504F" stroke-width="1.12"/>
</svg>
