<svg width="26" height="27" viewBox="0 0 26 27" fill="none" xmlns="http://www.w3.org/2000/svg">
<g clip-path="url(#clip0_2483_1429)">
<path d="M4.0625 5.14697C2.72594 5.14697 1.625 6.24791 1.625 7.58447V18.9595C1.625 20.296 2.72594 21.397 4.0625 21.397H21.9375C23.2741 21.397 24.375 20.296 24.375 18.9595V7.58447C24.375 6.24791 23.2741 5.14697 21.9375 5.14697H4.0625ZM4.0625 6.77197H21.9375C22.3974 6.77197 22.75 7.1246 22.75 7.58447V9.20947H4.0625V10.8345H22.75V18.9595C22.75 19.4193 22.3974 19.772 21.9375 19.772H4.0625C3.60263 19.772 3.25 19.4193 3.25 18.9595V7.58447C3.25 7.1246 3.60263 6.77197 4.0625 6.77197Z" fill="black" fill-opacity="0.5"/>
<g clip-path="url(#clip1_2483_1429)">
<path d="M8.54366 14.1349C8.41776 14.089 8.28467 14.066 8.15068 14.0669C7.71734 14.0669 7.4113 14.2852 7.40914 14.5986C7.40643 14.8288 7.62661 14.9585 7.79318 15.0354C7.96407 15.1145 8.02122 15.1643 8.02068 15.235C8.01959 15.3425 7.88418 15.3913 7.75824 15.3913C7.58518 15.3913 7.49066 15.3672 7.34522 15.3068L7.29132 15.2816L7.22984 15.6424C7.3352 15.6862 7.52505 15.7239 7.72114 15.7271C8.18182 15.7271 8.48299 15.5102 8.48651 15.1768C8.4903 14.9929 8.37114 14.854 8.12034 14.7391C7.96786 14.6646 7.87334 14.6148 7.87334 14.5393C7.87334 14.4724 7.95432 14.4009 8.12359 14.4009C8.23625 14.3981 8.34821 14.4193 8.45211 14.4629L8.49274 14.481L8.55422 14.1325L8.54366 14.1349ZM9.66816 14.0962H9.32962C9.22426 14.0962 9.14491 14.1252 9.09887 14.2297L8.44778 15.7047H8.90847L9.00055 15.4628L9.5628 15.4633C9.57607 15.5199 9.6167 15.7047 9.6167 15.7047H10.0229L9.66816 14.0962ZM6.78595 14.0826H7.22497L6.95034 15.6919H6.51186L6.78595 14.0821V14.0826ZM5.67147 14.9696L5.71697 15.193L6.14597 14.0962H6.61099L5.92009 15.7025H5.45616L5.07699 14.3424C5.07085 14.3199 5.05643 14.3007 5.03664 14.2885C4.89997 14.2179 4.75517 14.1643 4.60547 14.1289L4.61143 14.0951H5.31803C5.41391 14.0989 5.49109 14.1289 5.51682 14.2313L5.6712 14.9704L5.67147 14.9696ZM9.12649 15.1337L9.30145 14.6836C9.29928 14.6885 9.33747 14.5907 9.35968 14.5303L9.38974 14.6693L9.4913 15.1335H9.12622L9.12649 15.1337Z" fill="#2E3EB6"/>
</g>
<g clip-path="url(#clip2_2483_1429)">
<path d="M16.1797 13.0117H17.9354V17.0702H16.1797V13.0117Z" fill="#FF5F00"/>
<path d="M16.2929 15.0408C16.2929 14.2162 16.5939 13.4848 17.0565 13.0116C16.7165 12.6674 16.2873 12.4595 15.8191 12.4595C14.7099 12.4595 13.8125 13.6139 13.8125 15.0408C13.8125 16.4677 14.7099 17.6222 15.8191 17.6222C16.2873 17.6222 16.7165 17.4142 17.0565 17.07C16.5939 16.604 16.2929 15.8654 16.2929 15.0408Z" fill="#EB001B"/>
<path d="M20.3065 15.0408C20.3065 16.4677 19.4091 17.6222 18.2999 17.6222C17.8317 17.6222 17.4025 17.4142 17.0625 17.07C17.5307 16.5968 17.8261 15.8654 17.8261 15.0408C17.8261 14.2162 17.5251 13.4848 17.0625 13.0116C17.4025 12.6674 17.8317 12.4595 18.2999 12.4595C19.4091 12.4595 20.3065 13.6211 20.3065 15.0408Z" fill="#F79E1B"/>
</g>
<path d="M21.4773 7.67538V2.05038H22.4318V7.67538H21.4773ZM19.142 5.34015V4.38561H24.767V5.34015H19.142Z" fill="black"/>
</g>
<defs>
<clipPath id="clip0_2483_1429">
<rect width="26" height="26" fill="white" transform="translate(0 0.271973)"/>
</clipPath>
<clipPath id="clip1_2483_1429">
<rect width="6.5" height="6.5" fill="white" transform="translate(4.0625 11.647)"/>
</clipPath>
<clipPath id="clip2_2483_1429">
<rect width="6.5" height="6.5" fill="white" transform="translate(13.8125 12.4595)"/>
</clipPath>
</defs>
</svg>
