<svg width="20" height="20" viewBox="0 0 20 20" fill="none" xmlns="http://www.w3.org/2000/svg">
<g clip-path="url(#clip0_2379_4384)">
<path fill-rule="evenodd" clip-rule="evenodd" d="M13.4515 6.7035C13.137 6.51011 12.8822 6.23338 12.7154 5.904C12.5486 5.57462 12.4763 5.20547 12.5065 4.8375L10.5 4.485L10.673 3.5L12.842 3.881C13.025 3.60955 13.272 3.38724 13.5611 3.23362C13.8502 3.08 14.1726 2.99977 14.5 3H16.1925C16.3625 3 16.5 3.1375 16.5 3.3075V6.6925C16.5 6.8625 16.362 7 16.1925 7H16V11.125C16.7868 10.8996 17.6298 10.9793 18.3604 11.3483C19.091 11.7173 19.6555 12.3484 19.941 13.1155C20.097 13.5355 19.93 13.919 19.6435 14.1475C19.6682 14.8113 19.4518 15.4616 19.0344 15.9783C18.6169 16.495 18.0266 16.8432 17.3724 16.9585C16.7182 17.0739 16.0444 16.9485 15.4754 16.6057C14.9064 16.2629 14.4808 15.7257 14.277 15.0935C14.0065 15.0025 13.7715 14.7985 13.6825 14.5H7.9895C7.92813 15.1841 7.61301 15.8204 7.10614 16.2838C6.59926 16.7473 5.93731 17.0043 5.2505 17.0043C4.56369 17.0043 3.90174 16.7473 3.39486 16.2838C2.88799 15.8204 2.57287 15.1841 2.5115 14.5H0.235C0.20499 14.5009 0.175103 14.4958 0.147048 14.4851C0.118994 14.4744 0.0933203 14.4583 0.071496 14.4377C0.0496718 14.4171 0.0321244 14.3924 0.0198567 14.365C0.00758902 14.3376 0.000841547 14.308 0 14.278C0 12.51 1.0135 10.9665 2.52 10.14C2.50673 10.0945 2.5 10.0474 2.5 10V8.5C2.5 8.10218 2.65804 7.72064 2.93934 7.43934C3.22064 7.15804 3.60218 7 4 7H8.5C8.89782 7 9.27936 7.15804 9.56066 7.43934C9.84196 7.72064 10 8.10218 10 8.5V10C10 10.1326 9.94732 10.2598 9.85355 10.3536C9.75979 10.4473 9.63261 10.5 9.5 10.5V11H12.62L13.4515 6.7035ZM13.5 5C13.5 4.73478 13.6054 4.48043 13.7929 4.29289C13.9804 4.10536 14.2348 4 14.5 4H15.5V6H14.5C14.2348 6 13.9804 5.89464 13.7929 5.70711C13.6054 5.51957 13.5 5.26522 13.5 5ZM12.426 12H9.5V13.5H12.136L12.426 12ZM13.1545 13.5H13.7325C13.9131 12.7374 14.3633 12.0658 15 11.609V7H14.4125L13.1545 13.5ZM15.3295 15.033C15.4982 15.3702 15.7713 15.644 16.1081 15.8135C16.445 15.983 16.8276 16.0392 17.1989 15.9738C17.5703 15.9083 17.9106 15.7247 18.1692 15.4502C18.4277 15.1757 18.5908 14.8251 18.634 14.4505L15.3295 15.033ZM3.5 8.5C3.5 8.36739 3.55268 8.24021 3.64645 8.14645C3.74021 8.05268 3.86739 8 4 8H8.5C8.63261 8 8.75979 8.05268 8.85355 8.14645C8.94732 8.24021 9 8.36739 9 8.5V9.5H3.5V8.5ZM1.087 13.5C1.467 11.8175 3.0565 10.5 5.043 10.5H8.5V13.484C8.48381 13.4954 8.46427 13.501 8.4445 13.5H1.087ZM6.8095 14.5115C6.8725 14.5135 6.929 14.5155 6.9795 14.518C6.91573 14.931 6.70631 15.3075 6.3891 15.5794C6.0719 15.8514 5.66784 16.0009 5.25 16.0009C4.83216 16.0009 4.4281 15.8514 4.1109 15.5794C3.79369 15.3075 3.58427 14.931 3.5205 14.518C3.571 14.5155 3.6275 14.513 3.6905 14.5115C4.0585 14.5 4.555 14.5 5.25 14.5C5.9445 14.5 6.4415 14.5 6.81 14.5115H6.8095ZM18.1855 12.4065C17.8561 12.1758 17.4708 12.0376 17.0699 12.0063C16.6689 11.975 16.2669 12.0517 15.9057 12.2285C15.5444 12.4053 15.2372 12.6757 15.0159 13.0115C14.7946 13.3473 14.6674 13.7363 14.6475 14.138L18.9685 13.376C18.8041 12.9854 18.5326 12.6496 18.1855 12.4065Z" fill="#FF9C6B"/>
</g>
<defs>
<clipPath id="clip0_2379_4384">
<rect width="20" height="20" fill="white"/>
</clipPath>
</defs>
</svg>
