<svg width="12" height="12" viewBox="0 0 12 12" fill="none" xmlns="http://www.w3.org/2000/svg">
<path d="M9.98438 5.45645C10.1672 5.45645 10.3125 5.31113 10.3125 5.12832V4.69238C10.3125 2.77051 9.72656 2.18457 7.80469 2.18457H3.44531C1.52344 2.18457 0.9375 2.77051 0.9375 4.69238V4.9127C0.9375 5.09551 1.08281 5.24082 1.26563 5.24082C1.6875 5.24082 2.02969 5.58301 2.02969 6.00488C2.02969 6.42676 1.6875 6.76426 1.26563 6.76426C1.08281 6.76426 0.9375 6.90957 0.9375 7.09238V7.3127C0.9375 9.23457 1.52344 9.82051 3.44531 9.82051H7.80469C9.72656 9.82051 10.3125 9.23457 10.3125 7.3127C10.3125 7.12988 10.1672 6.98457 9.98438 6.98457C9.5625 6.98457 9.22031 6.64238 9.22031 6.22051C9.22031 5.79863 9.5625 5.45645 9.98438 5.45645ZM4.21875 4.5377C4.47656 4.5377 4.6875 4.74863 4.6875 5.00645C4.6875 5.26426 4.48125 5.4752 4.21875 5.4752C3.96094 5.4752 3.75 5.26426 3.75 5.00645C3.75 4.74863 3.95625 4.5377 4.21875 4.5377ZM7.03125 7.81894C6.76875 7.81894 6.55781 7.60801 6.55781 7.3502C6.55781 7.09238 6.76875 6.88145 7.02656 6.88145C7.28438 6.88145 7.49531 7.09238 7.49531 7.3502C7.49531 7.60801 7.29375 7.81894 7.03125 7.81894ZM7.45313 4.81895L4.29844 7.97363C4.22813 8.04394 4.13906 8.07676 4.05 8.07676C3.96094 8.07676 3.87188 8.04394 3.80156 7.97363C3.66563 7.83769 3.66563 7.61269 3.80156 7.47676L6.95625 4.32207C7.09219 4.18613 7.31719 4.18613 7.45313 4.32207C7.58906 4.45801 7.58906 4.68301 7.45313 4.81895Z" fill="#DE504F"/>
</svg>
