<svg width="277" height="222" viewBox="0 0 277 222" fill="none" xmlns="http://www.w3.org/2000/svg">
<path fill-rule="evenodd" clip-rule="evenodd" d="M228.941 72.3096C233.205 72.3096 236.662 75.7662 236.662 80.0302C236.662 84.2941 233.205 87.7507 228.941 87.7507H184.824C189.088 87.7507 192.544 91.2074 192.544 95.4713C192.544 99.7353 189.088 103.192 184.824 103.192H209.088C213.352 103.192 216.809 106.649 216.809 110.913C216.809 115.176 213.352 118.633 209.088 118.633H197.867C192.491 118.633 188.132 122.09 188.132 126.354C188.132 129.196 190.338 131.77 194.75 134.074C199.014 134.074 202.471 137.531 202.471 141.795C202.471 146.059 199.014 149.515 194.75 149.515H103.206C98.942 149.515 95.4854 146.059 95.4854 141.795C95.4854 137.531 98.942 134.074 103.206 134.074H60.1913C55.9273 134.074 52.4707 130.618 52.4707 126.354C52.4707 122.09 55.9273 118.633 60.1913 118.633H104.309C108.573 118.633 112.03 115.176 112.03 110.913C112.03 106.649 108.573 103.192 104.309 103.192H76.7354C72.4714 103.192 69.0148 99.7353 69.0148 95.4713C69.0148 91.2074 72.4714 87.7507 76.7354 87.7507H120.853C116.589 87.7507 113.132 84.2941 113.132 80.0302C113.132 75.7662 116.589 72.3096 120.853 72.3096H228.941ZM228.941 103.192C233.205 103.192 236.662 106.649 236.662 110.913C236.662 115.176 233.205 118.633 228.941 118.633C224.677 118.633 221.221 115.176 221.221 110.913C221.221 106.649 224.677 103.192 228.941 103.192Z" fill="#FFE7E6"/>
<path fill-rule="evenodd" clip-rule="evenodd" d="M110.864 147.522L112.507 147.465V170.625C112.507 171.149 112.934 171.574 113.46 171.574H170.637C171.163 171.574 171.589 171.149 171.589 170.625V91.2303C171.589 89.3085 170.025 87.7505 168.095 87.7505H116.001C114.072 87.7505 112.507 89.3085 112.507 91.2303V107.739L110.864 107.682C110.671 107.675 110.477 107.672 110.284 107.672C100.318 107.672 92.1777 116.564 92.1777 127.602C92.1777 138.64 100.318 147.532 110.284 147.532C110.477 147.532 110.671 147.528 110.864 147.522ZM111.046 139.909C110.793 139.929 110.539 139.939 110.284 139.939C104.269 139.939 99.5048 134.364 99.5048 127.602C99.5048 120.839 104.269 115.264 110.284 115.264C110.539 115.264 110.793 115.274 111.046 115.295L112.507 115.411V139.792L111.046 139.909Z" fill="white" stroke="#DE504F" stroke-width="2.75735" stroke-linejoin="round"/>
<path d="M162.766 94.5684V114.772M162.766 121.039V126.27V121.039Z" stroke="#EB9E9D" stroke-width="2.75735" stroke-linecap="round" stroke-linejoin="round"/>
<path d="M74.6719 162.75H82.2514M200.407 162.75H203.575M178.207 162.75H195.223M88.869 162.75H108.12" stroke="#DE504F" stroke-width="2.75735" stroke-linecap="round" stroke-linejoin="round"/>
<path d="M141.81 39.2212C138.869 43.8685 137.398 47.9126 137.398 51.3535C137.398 57.4817 142.531 60.2261 142.531 66.8642C142.531 70.2333 140.82 73.5786 137.398 76.9" stroke="#EB9E9D" stroke-width="2.75735" stroke-linecap="round"/>
<path d="M128.573 51.3535C127.61 57.4337 131.882 58.5582 131.882 64.0093C131.882 66.776 130.779 69.5427 128.573 72.3094" stroke="#EB9E9D" stroke-width="2.75735" stroke-linecap="round"/>
<path d="M149.304 48.5674C147.847 52.3385 148.666 54.6372 149.304 55.9902C150.669 58.8821 152.839 61.3786 152.839 64.3215C152.839 67.7394 151.661 71.0289 149.304 74.1898" stroke="#EB9E9D" stroke-width="2.75735" stroke-linecap="round"/>
<path d="M116.441 93.2651C116.441 92.6559 116.935 92.1621 117.544 92.1621L138.5 92.1621V168.265H117.544C116.935 168.265 116.441 167.771 116.441 167.162V93.2651Z" fill="#F7DCDB"/>
</svg>
