<svg width="18" height="15" viewBox="0 0 18 15" fill="none" xmlns="http://www.w3.org/2000/svg">
<path d="M14.4003 0.870775C14.9112 1.07881 15.3754 1.38373 15.7663 1.76811C16.1574 2.15231 16.4677 2.60847 16.6794 3.11055C16.891 3.61262 17 4.15076 17 4.69423C17 5.2377 16.891 5.77584 16.6794 6.27791C16.4677 6.77999 16.1574 7.23615 15.7663 7.62035L14.9549 8.4177L9.00003 14.2699L3.04505 8.4177L2.23371 7.62035C1.8426 7.23615 1.53232 6.77999 1.32064 6.27791C1.10896 5.77584 1 5.2377 1 4.69423C1 4.15076 1.10896 3.61262 1.32064 3.11055C1.53232 2.60847 1.8426 2.15231 2.23371 1.76811C2.62465 1.38373 3.08883 1.07881 3.59971 0.870775C4.11058 0.66274 4.65818 0.555664 5.21117 0.555664C5.76417 0.555664 6.31177 0.66274 6.82264 0.870775C7.33352 1.07881 7.7977 1.38373 8.18864 1.76811L9.00003 2.56546L9.81137 1.76811C10.2023 1.38373 10.6665 1.07881 11.1774 0.870775C11.6882 0.66274 12.2358 0.555664 12.7888 0.555664C13.3418 0.555664 13.8894 0.66274 14.4003 0.870775Z" stroke="#DE504F" stroke-linecap="round" stroke-linejoin="round"/>
</svg>
