<svg width="20" height="21" viewBox="0 0 20 21" fill="none" xmlns="http://www.w3.org/2000/svg">
<path d="M13.3346 2.22217H6.66797C3.33464 2.22217 1.66797 3.88883 1.66797 7.22217V18.0555C1.66797 18.5138 2.04297 18.8888 2.5013 18.8888H13.3346C16.668 18.8888 18.3346 17.2222 18.3346 13.8888V7.22217C18.3346 3.88883 16.668 2.22217 13.3346 2.22217Z" stroke="#DE504F" stroke-width="1.5" stroke-linecap="round" stroke-linejoin="round"/>
<path d="M10.7593 7.08912L6.4343 11.4141C6.26763 11.5808 6.1093 11.9058 6.07597 12.1391L5.84264 13.7891C5.75931 14.3891 6.17597 14.8058 6.77597 14.7225L8.42595 14.4891C8.65929 14.4558 8.98431 14.2975 9.15097 14.1308L13.476 9.80579C14.2176 9.06412 14.576 8.19746 13.476 7.09746C12.376 5.98912 11.5093 6.33912 10.7593 7.08912Z" stroke="#DE504F" stroke-width="1.5" stroke-miterlimit="10" stroke-linecap="round" stroke-linejoin="round"/>
<path d="M10.1445 7.70557C10.5112 9.0139 11.5362 10.0472 12.8529 10.4139" stroke="#DE504F" stroke-width="1.5" stroke-miterlimit="10" stroke-linecap="round" stroke-linejoin="round"/>
</svg>
