<svg width="24" height="25" viewBox="0 0 24 25" fill="none" xmlns="http://www.w3.org/2000/svg">
<path d="M14.3186 19.5698C14.3186 20.1798 13.9186 20.9798 13.4086 21.2898L11.9986 22.1998C10.6886 23.0098 8.86859 22.0998 8.86859 20.4798V15.1298C8.86859 14.4198 8.46859 13.5098 8.05859 13.0098L4.21857 8.96976C3.70857 8.45976 3.30859 7.55977 3.30859 6.94977V4.62976C3.30859 3.41976 4.21861 2.50977 5.32861 2.50977H18.6686C19.7786 2.50977 20.6886 3.41975 20.6886 4.52975V6.74976C20.6886 7.55976 20.1786 8.56976 19.6786 9.06976" stroke="#DE504F" stroke-width="1.5" stroke-miterlimit="10" stroke-linecap="round" stroke-linejoin="round"/>
<path d="M16.0711 17.0201C17.8384 17.0201 19.2711 15.5874 19.2711 13.8201C19.2711 12.0528 17.8384 10.6201 16.0711 10.6201C14.3038 10.6201 12.8711 12.0528 12.8711 13.8201C12.8711 15.5874 14.3038 17.0201 16.0711 17.0201Z" stroke="#DE504F" stroke-width="1.5" stroke-linecap="round" stroke-linejoin="round"/>
<path d="M19.8711 17.6201L18.8711 16.6201" stroke="#DE504F" stroke-width="1.5" stroke-linecap="round" stroke-linejoin="round"/>
</svg>
