<svg width="20" height="21" viewBox="0 0 20 21" fill="none" xmlns="http://www.w3.org/2000/svg">
<path d="M7.4987 8.83333C8.41917 8.83333 9.16536 8.08714 9.16536 7.16667C9.16536 6.24619 8.41917 5.5 7.4987 5.5C6.57822 5.5 5.83203 6.24619 5.83203 7.16667C5.83203 8.08714 6.57822 8.83333 7.4987 8.83333Z" stroke="#DE504F" stroke-width="1.5" stroke-linecap="round" stroke-linejoin="round"/>
<path d="M10.8346 2.1665H7.5013C3.33464 2.1665 1.66797 3.83317 1.66797 7.99984V12.9998C1.66797 17.1665 3.33464 18.8332 7.5013 18.8332H12.5013C16.668 18.8332 18.3346 17.1665 18.3346 12.9998V8.83317" stroke="#DE504F" stroke-width="1.5" stroke-linecap="round" stroke-linejoin="round"/>
<path d="M13.125 4.6665H17.7083" stroke="#DE504F" stroke-width="1.5" stroke-linecap="round"/>
<path d="M15.418 6.95833V2.375" stroke="#DE504F" stroke-width="1.5" stroke-linecap="round"/>
<path d="M2.22656 16.2918L6.3349 13.5335C6.99323 13.0918 7.94323 13.1418 8.5349 13.6501L8.8099 13.8918C9.4599 14.4501 10.5099 14.4501 11.1599 13.8918L14.6266 10.9168C15.2766 10.3585 16.3266 10.3585 16.9766 10.9168L18.3349 12.0835" stroke="#DE504F" stroke-width="1.5" stroke-linecap="round" stroke-linejoin="round"/>
</svg>
