<svg width="20" height="21" viewBox="0 0 20 21" fill="none" xmlns="http://www.w3.org/2000/svg">
<path d="M14.168 15.914H10.8346L7.12629 18.3806C6.57629 18.7473 5.83464 18.3556 5.83464 17.689V15.914C3.33464 15.914 1.66797 14.2473 1.66797 11.7473V6.74723C1.66797 4.24723 3.33464 2.58057 5.83464 2.58057H14.168C16.668 2.58057 18.3346 4.24723 18.3346 6.74723V11.7473C18.3346 14.2473 16.668 15.914 14.168 15.914Z" stroke="#DE504F" stroke-width="1.5" stroke-miterlimit="10" stroke-linecap="round" stroke-linejoin="round"/>
<path d="M10.0005 10.0225V9.84749C10.0005 9.28083 10.3505 8.98081 10.7005 8.73915C11.0422 8.50581 11.3838 8.20582 11.3838 7.65582C11.3838 6.88916 10.7672 6.27246 10.0005 6.27246C9.23383 6.27246 8.61719 6.88916 8.61719 7.65582" stroke="#DE504F" stroke-width="1.5" stroke-linecap="round" stroke-linejoin="round"/>
<path d="M9.99495 12.0138H10.0024" stroke="#DE504F" stroke-width="1.5" stroke-linecap="round" stroke-linejoin="round"/>
</svg>
