<svg width="25" height="25" viewBox="0 0 25 25" fill="none" xmlns="http://www.w3.org/2000/svg">
<path d="M20.5383 7.32018L14.7783 3.29018C13.2083 2.19018 10.7983 2.25018 9.28828 3.42018L4.27828 7.33018C3.27828 8.11018 2.48828 9.71018 2.48828 10.9702V17.8702C2.48828 20.4202 4.55828 22.5002 7.10828 22.5002H17.8883C20.4383 22.5002 22.5083 20.4302 22.5083 17.8802V11.1002C22.5083 9.75018 21.6383 8.09018 20.5383 7.32018ZM13.2483 18.5002C13.2483 18.9102 12.9083 19.2502 12.4983 19.2502C12.0883 19.2502 11.7483 18.9102 11.7483 18.5002V15.5002C11.7483 15.0902 12.0883 14.7502 12.4983 14.7502C12.9083 14.7502 13.2483 15.0902 13.2483 15.5002V18.5002Z" fill="#DE504F"/>
</svg>
