<svg width="20" height="21" viewBox="0 0 20 21" fill="none" xmlns="http://www.w3.org/2000/svg">
<path d="M9.9987 10.5555C12.2999 10.5555 14.1654 8.69002 14.1654 6.38883C14.1654 4.08765 12.2999 2.22217 9.9987 2.22217C7.69751 2.22217 5.83203 4.08765 5.83203 6.38883C5.83203 8.69002 7.69751 10.5555 9.9987 10.5555Z" stroke="#DE504F" stroke-width="1.5" stroke-linecap="round" stroke-linejoin="round"/>
<path d="M2.83984 18.889C2.83984 15.664 6.04817 13.0557 9.99817 13.0557C10.7982 13.0557 11.5732 13.164 12.2982 13.364" stroke="#DE504F" stroke-width="1.5" stroke-linecap="round" stroke-linejoin="round"/>
<path d="M18.3346 15.5555C18.3346 15.8222 18.3013 16.0805 18.2346 16.3305C18.1596 16.6638 18.0263 16.9888 17.8513 17.2722C17.2763 18.2388 16.218 18.8888 15.0013 18.8888C14.143 18.8888 13.368 18.5638 12.7846 18.0305C12.5346 17.8138 12.318 17.5555 12.1513 17.2722C11.843 16.7722 11.668 16.1805 11.668 15.5555C11.668 14.6555 12.0263 13.8305 12.6096 13.2305C13.218 12.6055 14.068 12.2222 15.0013 12.2222C15.9846 12.2222 16.8763 12.6472 17.4763 13.3305C18.0096 13.9222 18.3346 14.7055 18.3346 15.5555Z" stroke="#DE504F" stroke-width="1.5" stroke-miterlimit="10" stroke-linecap="round" stroke-linejoin="round"/>
<path d="M16.2411 15.5391H13.7578" stroke="#DE504F" stroke-width="1.5" stroke-miterlimit="10" stroke-linecap="round" stroke-linejoin="round"/>
<path d="M15 14.3223V16.8139" stroke="#DE504F" stroke-width="1.5" stroke-miterlimit="10" stroke-linecap="round" stroke-linejoin="round"/>
</svg>
