<svg width="50" height="50" viewBox="0 0 50 50" fill="none" xmlns="http://www.w3.org/2000/svg">
<rect x="0.5" y="0.5" width="49" height="49" rx="24.5" stroke="#DE504F"/>
<g clip-path="url(#clip0_3181_29233)">
<path d="M21.5657 33.3596L21.5658 33.3597C22.5299 34.2875 23.7646 34.75 24.9991 34.75C26.2341 34.75 27.4676 34.2872 28.4207 33.3614L28.4226 33.3596C31.2551 30.636 34.2398 26.4489 33.1316 21.5608L21.5657 33.3596ZM21.5657 33.3596C18.7334 30.6363 15.7484 26.4392 16.8567 21.5508L21.5657 33.3596ZM24.9991 15.25C28.365 15.25 32.1453 17.2217 33.1315 21.5606L16.8567 21.5506C17.8427 17.2128 21.6319 15.25 24.9891 15.25H24.9892H24.9892H24.9893H24.9894H24.9894H24.9895H24.9895H24.9896H24.9896H24.9897H24.9897H24.9898H24.9899H24.9899H24.99H24.99H24.9901H24.9901H24.9902H24.9902H24.9903H24.9904H24.9904H24.9905H24.9905H24.9906H24.9906H24.9907H24.9907H24.9908H24.9908H24.9909H24.9909H24.991H24.991H24.9911H24.9911H24.9912H24.9912H24.9913H24.9913H24.9914H24.9914H24.9915H24.9915H24.9916H24.9916H24.9917H24.9917H24.9918H24.9918H24.9919H24.9919H24.992H24.992H24.9921H24.9921H24.9921H24.9922H24.9922H24.9923H24.9923H24.9924H24.9924H24.9925H24.9925H24.9926H24.9926H24.9926H24.9927H24.9927H24.9928H24.9928H24.9929H24.9929H24.9929H24.993H24.993H24.9931H24.9931H24.9932H24.9932H24.9932H24.9933H24.9933H24.9934H24.9934H24.9934H24.9935H24.9935H24.9936H24.9936H24.9936H24.9937H24.9937H24.9938H24.9938H24.9938H24.9939H24.9939H24.9939H24.994H24.994H24.9941H24.9941H24.9941H24.9942H24.9942H24.9942H24.9943H24.9943H24.9944H24.9944H24.9944H24.9945H24.9945H24.9945H24.9946H24.9946H24.9946H24.9947H24.9947H24.9947H24.9948H24.9948H24.9948H24.9949H24.9949H24.9949H24.995H24.995H24.995H24.9951H24.9951H24.9951H24.9952H24.9952H24.9952H24.9953H24.9953H24.9953H24.9953H24.9954H24.9954H24.9954H24.9955H24.9955H24.9955H24.9956H24.9956H24.9956H24.9956H24.9957H24.9957H24.9957H24.9958H24.9958H24.9958H24.9958H24.9959H24.9959H24.9959H24.996H24.996H24.996H24.996H24.9961H24.9961H24.9961H24.9961H24.9962H24.9962H24.9962H24.9962H24.9963H24.9963H24.9963H24.9963H24.9964H24.9964H24.9964H24.9964H24.9965H24.9965H24.9965H24.9965H24.9966H24.9966H24.9966H24.9966H24.9967H24.9967H24.9967H24.9967H24.9967H24.9968H24.9968H24.9968H24.9968H24.9969H24.9969H24.9969H24.9969H24.9969H24.997H24.997H24.997H24.997H24.997H24.9971H24.9971H24.9971H24.9971H24.9971H24.9972H24.9972H24.9972H24.9972H24.9972H24.9973H24.9973H24.9973H24.9973H24.9973H24.9974H24.9974H24.9974H24.9974H24.9974H24.9974H24.9975H24.9975H24.9975H24.9975H24.9975H24.9976H24.9976H24.9976H24.9976H24.9976H24.9976H24.9977H24.9977H24.9977H24.9977H24.9977H24.9977H24.9977H24.9978H24.9978H24.9978H24.9978H24.9978H24.9978H24.9979H24.9979H24.9979H24.9979H24.9979H24.9979H24.9979H24.998H24.998H24.998H24.998H24.998H24.998H24.998H24.998H24.9981H24.9981H24.9981H24.9981H24.9981H24.9981H24.9981H24.9982H24.9982H24.9982H24.9982H24.9982H24.9982H24.9982H24.9982H24.9982H24.9983H24.9983H24.9983H24.9983H24.9983H24.9983H24.9983H24.9983H24.9983H24.9984H24.9984H24.9984H24.9984H24.9984H24.9984H24.9984H24.9984H24.9984H24.9984H24.9985H24.9985H24.9985H24.9985H24.9985H24.9985H24.9985H24.9985H24.9985H24.9985H24.9985H24.9986H24.9986H24.9986H24.9986H24.9986H24.9986H24.9986H24.9986H24.9986H24.9986H24.9986H24.9986H24.9987H24.9987H24.9987H24.9987H24.9987H24.9987H24.9987H24.9987H24.9987H24.9988H24.9988H24.9988H24.9988H24.9988H24.9988H24.9988H24.9988H24.9989H24.9989H24.9989H24.9989H24.9989H24.9989H24.9989H24.9989H24.9989H24.9989H24.9989H24.999H24.999H24.999H24.999H24.999H24.999H24.999H24.999H24.999H24.999H24.999H24.999H24.9991H24.9991H24.9991H24.9991H24.9991H24.9991H24.9991H24.9991H24.9991ZM21.3491 23.31C21.3491 25.3261 22.983 26.96 24.9991 26.96C27.0153 26.96 28.6491 25.3261 28.6491 23.31C28.6491 21.2939 27.0153 19.66 24.9991 19.66C22.983 19.66 21.3491 21.2939 21.3491 23.31Z" fill="#DE504F" stroke="#DE504F"/>
</g>
<defs>
<clipPath id="clip0_3181_29233">
<rect width="24" height="24" fill="white" transform="translate(13 13)"/>
</clipPath>
</defs>
</svg>
