<svg width="25" height="25" viewBox="0 0 25 25" fill="none" xmlns="http://www.w3.org/2000/svg">
<path d="M8 4.5H17C17.62 4.5 18.17 4.52 18.66 4.59C21.29 4.88 22 6.12 22 9.5V15.5C22 18.88 21.29 20.12 18.66 20.41C18.17 20.48 17.62 20.5 17 20.5H8C7.38 20.5 6.83 20.48 6.34 20.41C3.71 20.12 3 18.88 3 15.5V9.5C3 6.12 3.71 4.88 6.34 4.59C6.83 4.52 7.38 4.5 8 4.5Z" stroke="#DE504F" stroke-width="1.5" stroke-linecap="round" stroke-linejoin="round"/>
<path d="M14 10.5H17.5" stroke="#DE504F" stroke-width="1.5" stroke-linecap="round" stroke-linejoin="round"/>
<path d="M7.5 16H7.52H17.5" stroke="#DE504F" stroke-width="1.5" stroke-linecap="round" stroke-linejoin="round"/>
<path d="M10.5961 10.5H10.6051" stroke="#DE504F" stroke-width="2" stroke-linecap="round" stroke-linejoin="round"/>
<path d="M7.59607 10.5H7.60505" stroke="#DE504F" stroke-width="2" stroke-linecap="round" stroke-linejoin="round"/>
</svg>
