<svg width="24" height="25" viewBox="0 0 24 25" fill="none" xmlns="http://www.w3.org/2000/svg">
<path d="M16 9.48999V20.85C16 22.3 14.96 22.91 13.69 22.21L9.76001 20.02C9.34001 19.79 8.65999 19.79 8.23999 20.02L4.31 22.21C3.04 22.91 2 22.3 2 20.85V9.48999C2 7.77999 3.39999 6.38 5.10999 6.38H12.89C14.6 6.38 16 7.77999 16 9.48999Z" stroke="#FFEFD0" stroke-width="1.5" stroke-linecap="round" stroke-linejoin="round"/>
<path d="M22 5.60999V16.97C22 18.42 20.96 19.03 19.69 18.33L16 16.27V9.48999C16 7.77999 14.6 6.38 12.89 6.38H8V5.60999C8 3.89999 9.39999 2.5 11.11 2.5H18.89C20.6 2.5 22 3.89999 22 5.60999Z" stroke="#FFEFD0" stroke-width="1.5" stroke-linecap="round" stroke-linejoin="round"/>
<path d="M7 12.5H11" stroke="#FFEFD0" stroke-width="1.5" stroke-linecap="round" stroke-linejoin="round"/>
<path d="M9 14.5V10.5" stroke="#FFEFD0" stroke-width="1.5" stroke-linecap="round" stroke-linejoin="round"/>
</svg>
