<svg width="20" height="21" viewBox="0 0 20 21" fill="none" xmlns="http://www.w3.org/2000/svg">
<path d="M2.5 8.1473V12.9556C2.5 14.7223 2.5 14.7223 4.16667 15.8473L8.75 18.4973C9.44167 18.8973 10.5667 18.8973 11.25 18.4973L15.8333 15.8473C17.5 14.7223 17.5 14.7223 17.5 12.964V8.1473C17.5 6.38896 17.5 6.38896 15.8333 5.26396L11.25 2.61396C10.5667 2.21396 9.44167 2.21396 8.75 2.61396L4.16667 5.26396C2.5 6.38896 2.5 6.38896 2.5 8.1473Z" stroke="#DE504F" stroke-width="1.5" stroke-linecap="round" stroke-linejoin="round"/>
<path d="M10 13.0557C11.3807 13.0557 12.5 11.9364 12.5 10.5557C12.5 9.17495 11.3807 8.05566 10 8.05566C8.61929 8.05566 7.5 9.17495 7.5 10.5557C7.5 11.9364 8.61929 13.0557 10 13.0557Z" stroke="#DE504F" stroke-width="1.5" stroke-linecap="round" stroke-linejoin="round"/>
</svg>
