<svg width="34" height="34" viewBox="0 0 34 34" fill="none" xmlns="http://www.w3.org/2000/svg">
<path d="M16.0633 2.50494C16.3873 1.6386 17.6127 1.6386 17.9367 2.50494L20.965 10.6037C21.1055 10.9796 21.4571 11.235 21.858 11.2525L30.4962 11.63C31.4202 11.6703 31.7989 12.8358 31.0751 13.4116L24.3085 18.7944C23.9945 19.0442 23.8602 19.4575 23.9674 19.8442L26.2778 28.1762C26.5249 29.0675 25.5335 29.7878 24.7622 29.2773L17.5519 24.5053C17.2173 24.2838 16.7827 24.2838 16.4481 24.5053L9.23779 29.2773C8.46649 29.7878 7.4751 29.0675 7.72225 28.1762L10.0326 19.8442C10.1398 19.4575 10.0055 19.0442 9.69151 18.7944L2.92494 13.4116C2.2011 12.8358 2.57978 11.6703 3.50383 11.63L12.142 11.2525C12.5429 11.235 12.8945 10.9796 13.035 10.6037L16.0633 2.50494Z" fill="#FFEFD0"/>
<g clip-path="url(#clip0_2334_21978)">
<path d="M16.0633 2.50494C16.3873 1.6386 17.6127 1.6386 17.9367 2.50494L20.965 10.6037C21.1055 10.9796 21.4571 11.235 21.858 11.2525L30.4962 11.63C31.4202 11.6703 31.7989 12.8358 31.0751 13.4116L24.3085 18.7944C23.9945 19.0442 23.8602 19.4575 23.9674 19.8442L26.2778 28.1762C26.5249 29.0675 25.5335 29.7878 24.7622 29.2773L17.5519 24.5053C17.2173 24.2838 16.7827 24.2838 16.4481 24.5053L9.23779 29.2773C8.46649 29.7878 7.4751 29.0675 7.72225 28.1762L10.0326 19.8442C10.1398 19.4575 10.0055 19.0442 9.69151 18.7944L2.92494 13.4116C2.2011 12.8358 2.57978 11.6703 3.50383 11.63L12.142 11.2525C12.5429 11.235 12.8945 10.9796 13.035 10.6037L16.0633 2.50494Z" fill="#FF9C6B"/>
</g>
<defs>
<clipPath id="clip0_2334_21978">
<rect width="17" height="34" fill="white"/>
</clipPath>
</defs>
</svg>
