<svg width="30" height="29" viewBox="0 0 30 29" fill="none" xmlns="http://www.w3.org/2000/svg">
<path d="M14.0633 1.50494C14.3873 0.638596 15.6127 0.638597 15.9367 1.50494L18.965 9.6037C19.1055 9.97955 19.4571 10.235 19.858 10.2525L28.4962 10.63C29.4202 10.6703 29.7989 11.8358 29.0751 12.4116L22.3085 17.7944C21.9945 18.0442 21.8602 18.4575 21.9674 18.8442L24.2778 27.1762C24.5249 28.0675 23.5335 28.7878 22.7622 28.2773L15.5519 23.5053C15.2173 23.2838 14.7827 23.2838 14.4481 23.5053L7.23779 28.2773C6.46649 28.7878 5.4751 28.0675 5.72225 27.1762L8.03261 18.8442C8.13983 18.4575 8.00554 18.0442 7.69151 17.7944L0.924937 12.4116C0.201098 11.8358 0.579776 10.6703 1.50383 10.63L10.142 10.2525C10.5429 10.235 10.8945 9.97955 11.035 9.60371L14.0633 1.50494Z" fill="#FFEFD0"/>
</svg>
