<svg width="20" height="20" viewBox="0 0 20 20" fill="none" xmlns="http://www.w3.org/2000/svg">
<path d="M17.7513 9.03346C18.0763 9.03346 18.3346 8.77513 18.3346 8.45013V7.67513C18.3346 4.25846 17.293 3.2168 13.8763 3.2168H6.1263C2.70964 3.2168 1.66797 4.25846 1.66797 7.67513V8.0668C1.66797 8.3918 1.9263 8.65013 2.2513 8.65013C3.0013 8.65013 3.60964 9.25846 3.60964 10.0085C3.60964 10.7585 3.0013 11.3585 2.2513 11.3585C1.9263 11.3585 1.66797 11.6168 1.66797 11.9418V12.3335C1.66797 15.7501 2.70964 16.7918 6.1263 16.7918H13.8763C17.293 16.7918 18.3346 15.7501 18.3346 12.3335C18.3346 12.0085 18.0763 11.7501 17.7513 11.7501C17.0013 11.7501 16.393 11.1418 16.393 10.3918C16.393 9.6418 17.0013 9.03346 17.7513 9.03346ZM7.5013 7.40013C7.95964 7.40013 8.33464 7.77513 8.33464 8.23346C8.33464 8.6918 7.96797 9.0668 7.5013 9.0668C7.04297 9.0668 6.66797 8.6918 6.66797 8.23346C6.66797 7.77513 7.03464 7.40013 7.5013 7.40013ZM12.5013 13.2335C12.0346 13.2335 11.6596 12.8585 11.6596 12.4001C11.6596 11.9418 12.0346 11.5668 12.493 11.5668C12.9513 11.5668 13.3263 11.9418 13.3263 12.4001C13.3263 12.8585 12.968 13.2335 12.5013 13.2335ZM13.2513 7.90013L7.64297 13.5085C7.51797 13.6335 7.35964 13.6918 7.2013 13.6918C7.04297 13.6918 6.88464 13.6335 6.75964 13.5085C6.51797 13.2668 6.51797 12.8668 6.75964 12.6251L12.368 7.0168C12.6096 6.77513 13.0096 6.77513 13.2513 7.0168C13.493 7.25846 13.493 7.65846 13.2513 7.90013Z" fill="#DE504F"/>
</svg>
