<svg width="19" height="19" viewBox="0 0 19 19" fill="none" xmlns="http://www.w3.org/2000/svg">
<rect width="19" height="19" fill="#585858"/>
<g id="Vendor - orders - Food - Delivery Flow">
<rect width="21574" height="4289" transform="translate(-11269 -909)" fill="#262626"/>
<g id="vendor locations" filter="url(#filter0_d_1021_8613)">
<rect width="375" height="971" transform="translate(-324 -154)" fill="#FFFAF0"/>
<g id="Frame 1000008078">
<g id="Frame 1000008075">
<g id="Frame 1000008055">
<g id="Frame 1000007812">
<rect x="-9" y="-9.25" width="37.5" height="37.5" rx="18.75" fill="#FFEFD0"/>
<g id="trash">
<g id="vuesax/bold/trash">
<g id="trash_2">
<path id="Vector" d="M16.5038 4.92005L16.5058 4.92025C16.541 4.9236 16.5714 4.95376 16.5723 4.99341C16.5656 5.02503 16.537 5.0475 16.5082 5.0475H16.5081H16.508H16.5078H16.5077H16.5076H16.5074H16.5073H16.5072H16.507H16.5069H16.5068H16.5067H16.5065H16.5064H16.5063H16.5061H16.506H16.5059H16.5058H16.5056H16.5055H16.5054H16.5052H16.5051H16.505H16.5049H16.5047H16.5046H16.5045H16.5043H16.5042H16.5041H16.504H16.5038H16.5037H16.5036H16.5035H16.5033H16.5032H16.5031H16.503H16.5028H16.5027H16.5026H16.5025H16.5023H16.5022H16.5021H16.502H16.5018H16.5017H16.5016H16.5015H16.5013H16.5012H16.5011H16.501H16.5008H16.5007H16.5006H16.5005H16.5004H16.5002H16.5001H16.5H16.4999H16.4997H16.4996H16.4995H16.4994H16.4993H16.4991H16.499H16.4989H16.4988H16.4987H16.4985H16.4984H16.4983H16.4982H16.4981H16.4979H16.4978H16.4977H16.4976H16.4975H16.4973H16.4972H16.4971H16.497H16.4969H16.4967H16.4966H16.4965H16.4964H16.4963H16.4961H16.496H16.4959H16.4958H16.4957H16.4956H16.4954H16.4953H16.4952H16.4951H16.495H16.4949H16.4947H16.4946H16.4945H16.4944H16.4943H16.4942H16.494H16.4939H16.4938H16.4937H16.4936H16.4935H16.4933H16.4932H16.4931H16.493H16.4929H16.4928H16.4926H16.4925H16.4924H16.4923H16.4922H16.4921H16.492H16.4918H16.4917H16.4916H16.4915H16.4914H16.4913H16.4911H16.491H16.4909H16.4908H16.4907H16.4906H16.4905H16.4903H16.4902H16.4901H16.49H16.4899H16.4898H16.4897H16.4896H16.4894H16.4893H16.4892H16.4891H16.489H16.4889H16.4888H16.4886H16.4885H16.4884H16.4883H16.4882H16.4881H16.488H16.4879H16.4877H16.4876H16.4875H16.4874H16.4873H16.4872H16.4871H16.487H16.4869H16.4867H16.4866H16.4865H16.4864H16.4863H16.4862H16.4861H16.486H16.4858H16.4857H16.4856H16.4855H16.4854H16.4853H16.4852H16.4851H16.485H16.4848H16.4847H16.4846H16.4845H16.4844H16.4843H16.4842H16.4841H16.484H16.4838H16.4837H16.4836H16.4835H16.4834H16.4833H16.4832H16.4831H16.483H16.4829H16.4827H16.4826H16.4825H16.4824H16.4823H16.4822H16.4821H16.482H16.4819H16.4817H16.4816H16.4815H16.4814H16.4813H16.4812H16.4811H16.481H16.4809H16.4808H16.4806H16.4805H16.4804H16.4803H16.4802H16.4801H16.48H16.4799H16.4798H16.4797H16.4795H16.4794H16.4793H16.4792H16.4791H16.479H16.4789H16.4788H16.4787H16.4786H16.4784H16.4783H16.4782H16.4781H16.478H16.4779H16.4778H16.4777H16.4776H16.4775H16.4774H16.4772H16.4771H16.477H16.4769H16.4768H16.4767H16.4766H16.4765H16.4764H16.4763H16.4761H16.476H16.4759H16.4758H16.4757H16.4756H16.4755H16.4754H16.4753H16.4752H16.475H16.4749H16.4748H16.4747H16.4746H16.4745H16.4744H16.4743H16.4742H16.474H16.4739H16.4738H16.4737H16.4736H16.4735H16.4734H16.4733H16.4732H16.4731C12.4875 4.64996 8.50024 4.49886 4.53412 4.89242C4.53403 4.89243 4.53394 4.89244 4.53385 4.89244L3.00582 5.04225C3.00569 5.04226 3.00556 5.04228 3.00543 5.04229C2.98224 5.04441 2.96676 5.03761 2.95636 5.02906C2.94556 5.02018 2.93766 5.00734 2.93587 4.98895C2.93269 4.95639 2.95633 4.92399 2.99563 4.92025L2.99563 4.92025L2.99701 4.92011L4.52639 4.77018C4.52648 4.77017 4.52656 4.77016 4.52665 4.77015C5.21476 4.70356 5.90419 4.65904 6.60292 4.61396L6.99975 4.58836L7.06413 4.19595L7.22156 3.23637C7.22158 3.23629 7.22159 3.2362 7.22161 3.23611C7.2849 2.85239 7.3441 2.5582 7.52239 2.33853C7.67299 2.15298 7.98434 1.9375 8.76073 1.9375H10.7257C11.4993 1.9375 11.8135 2.16016 11.9668 2.35269C12.1478 2.58012 12.2054 2.8791 12.2647 3.24296L12.2647 3.24296L12.2652 3.24593L12.4232 4.17951V4.61799L12.8955 4.64423C14.1042 4.71138 15.3044 4.80086 16.5038 4.92005Z" fill="#DE504F" stroke="#DE504F"/>
<path id="Vector_2" d="M14.4893 6.8125C14.6058 6.8125 14.7216 6.86007 14.8074 6.94747C14.8887 7.03781 14.9345 7.15958 14.9276 7.28872C14.9276 7.28907 14.9276 7.28942 14.9276 7.28977L14.4629 14.972C14.4196 15.5737 14.3705 16.0611 14.1062 16.4228C13.8733 16.7417 13.3803 17.07 12.1568 17.07H7.34182C6.11923 17.07 5.62603 16.7403 5.39267 16.4204C5.12801 16.0575 5.07903 15.5695 5.03573 14.9719L4.57101 7.28147C4.571 7.28125 4.57098 7.28103 4.57097 7.28081C4.56424 7.15972 4.6098 7.03591 4.69479 6.94353C4.76654 6.86554 4.88494 6.8125 5.00932 6.8125H14.4893ZM8.49682 14.3125H10.9943C11.578 14.3125 12.0568 13.8336 12.0568 13.25C12.0568 12.6664 11.578 12.1875 10.9943 12.1875H8.49682C7.91318 12.1875 7.43432 12.6664 7.43432 13.25C7.43432 13.8336 7.91318 14.3125 8.49682 14.3125ZM7.87432 11.3125H11.6243C12.208 11.3125 12.6868 10.8336 12.6868 10.25C12.6868 9.66636 12.208 9.1875 11.6243 9.1875H7.87432C7.29068 9.1875 6.81182 9.66636 6.81182 10.25C6.81182 10.8336 7.29068 11.3125 7.87432 11.3125Z" fill="#DE504F" stroke="#DE504F"/>
</g>
</g>
</g>
</g>
</g>
</g>
</g>
</g>
</g>
<defs>
<filter id="filter0_d_1021_8613" x="-328" y="-154" width="383" height="979" filterUnits="userSpaceOnUse" color-interpolation-filters="sRGB">
<feFlood flood-opacity="0" result="BackgroundImageFix"/>
<feColorMatrix in="SourceAlpha" type="matrix" values="0 0 0 0 0 0 0 0 0 0 0 0 0 0 0 0 0 0 127 0" result="hardAlpha"/>
<feOffset dy="4"/>
<feGaussianBlur stdDeviation="2"/>
<feComposite in2="hardAlpha" operator="out"/>
<feColorMatrix type="matrix" values="0 0 0 0 0 0 0 0 0 0 0 0 0 0 0 0 0 0 0.25 0"/>
<feBlend mode="normal" in2="BackgroundImageFix" result="effect1_dropShadow_1021_8613"/>
<feBlend mode="normal" in="SourceGraphic" in2="effect1_dropShadow_1021_8613" result="shape"/>
</filter>
</defs>
</svg>
