<svg width="38" height="38" viewBox="0 0 38 38" fill="none" xmlns="http://www.w3.org/2000/svg">
<rect x="0.375" y="0.625" width="36.75" height="36.75" rx="18.375" stroke="#DE504F" stroke-width="0.75"/>
<path d="M25.5 14.485C23.0025 14.2375 20.49 14.11 17.985 14.11C16.5 14.11 15.015 14.185 13.53 14.335L12 14.485" stroke="#DE504F" stroke-width="1.5" stroke-linecap="round" stroke-linejoin="round"/>
<path d="M16.125 13.7275L16.29 12.745C16.41 12.0325 16.5 11.5 17.7675 11.5H19.7325C21 11.5 21.0975 12.0625 21.21 12.7525L21.375 13.7275" stroke="#DE504F" stroke-width="1.5" stroke-linecap="round" stroke-linejoin="round"/>
<path d="M23.8883 16.855L23.4008 24.4075C23.3183 25.585 23.2508 26.5 21.1583 26.5H16.3433C14.2508 26.5 14.1833 25.585 14.1008 24.4075L13.6133 16.855" stroke="#DE504F" stroke-width="1.5" stroke-linecap="round" stroke-linejoin="round"/>
<path d="M17.498 22.375H19.9955" stroke="#DE504F" stroke-width="1.5" stroke-linecap="round" stroke-linejoin="round"/>
<path d="M16.875 19.375H20.625" stroke="#DE504F" stroke-width="1.5" stroke-linecap="round" stroke-linejoin="round"/>
</svg>
